<svg width="656" height="695" viewBox="0 0 656 695" fill="none" xmlns="http://www.w3.org/2000/svg">
<ellipse cx="327" cy="357.5" rx="245" ry="236.5" fill="black"/>
<mask id="mask0_53_208" style="mask-type:alpha" maskUnits="userSpaceOnUse" x="0" y="0" width="656" height="695">
<path fill-rule="evenodd" clip-rule="evenodd" d="M352 51H302V67.1377C310.233 66.3848 318.572 66 327 66C335.428 66 343.767 66.3848 352 67.1377V51Z" fill="#D9D9D9"/>
<path fill-rule="evenodd" clip-rule="evenodd" d="M125.355 124L90 159.355L101.252 170.607C107.917 162.273 115.11 154.222 122.832 146.5C127.034 142.298 131.332 138.254 135.721 134.365L125.355 124Z" fill="#D9D9D9"/>
<path fill-rule="evenodd" clip-rule="evenodd" d="M561.79 159.355L526.435 124L514.712 135.723C520.377 140.586 525.9 145.701 531.268 151.068C537.812 157.612 543.981 164.388 549.776 171.37L561.79 159.355Z" fill="#D9D9D9"/>
<path fill-rule="evenodd" clip-rule="evenodd" d="M328.5 563C443.099 563 536 470.099 536 355.5C536 240.901 443.099 148 328.5 148C213.901 148 121 240.901 121 355.5C121 470.099 213.901 563 328.5 563ZM328.5 551C434.409 551 520.265 463.696 520.265 356C520.265 248.304 434.409 161 328.5 161C222.591 161 136.735 248.304 136.735 356C136.735 463.696 222.591 551 328.5 551Z" fill="#DBBF8B"/>
<path fill-rule="evenodd" clip-rule="evenodd" d="M600.885 348H578V363H600.912C597.266 507.879 480.749 624.719 336 628.885V593.847C461.494 589.331 561.857 485.243 561.857 357.5C561.857 229.757 461.494 125.669 336 121.153V83.115C480.416 87.2709 596.729 203.584 600.885 348ZM321 628.912V593.911C194.572 590.438 93.1396 485.922 93.1396 357.5C93.1396 229.078 194.572 124.562 321 121.089V83.088C176.121 86.7344 59.2804 203.251 55.1149 348H78.9999V363H55.0879C58.7426 508.212 175.787 625.257 321 628.912Z" fill="#DBBF8B"/>
<path fill-rule="evenodd" clip-rule="evenodd" d="M336 154H320V296.283H313.577L320 321.735V558H336V385.136L342.43 410.617H366.655L383.473 337.48V296.283H376.221L354.62 394.416L336 303.322V154ZM336 303.322L334.561 296.283H320V321.735L336 385.136V303.322ZM283.822 312.176C286.497 313.513 289.017 315.519 291.383 318.193L304.189 306.775C296.372 299.163 286.702 295.1 275.182 294.586V309.861C278.268 310.067 281.148 310.839 283.822 312.176ZM283.822 393.027C281.148 394.365 278.268 395.188 275.182 395.496V410.771C280.942 410.463 286.24 409.28 291.074 407.223C295.909 405.165 300.281 402.234 304.189 398.428L291.383 387.164C289.12 389.736 286.6 391.69 283.822 393.027ZM228.43 328.377C226.27 335.372 225.189 343.447 225.189 352.602C225.189 361.757 226.27 369.883 228.43 376.98C230.693 383.975 233.779 389.89 237.688 394.725C241.596 399.559 246.174 403.314 251.42 405.988C256.769 408.663 262.581 410.206 268.855 410.617V395.496C265.564 395.085 262.375 393.953 259.289 392.102C256.306 390.25 253.683 387.576 251.42 384.078C249.157 380.581 247.357 376.26 246.02 371.117C244.785 365.974 244.117 359.802 244.014 352.602C244.117 345.504 244.785 339.383 246.02 334.24C247.357 328.994 249.157 324.674 251.42 321.279C253.683 317.885 256.306 315.313 259.289 313.564C262.272 311.713 265.461 310.53 268.855 310.016V294.586C262.581 295.1 256.769 296.695 251.42 299.369C246.174 302.044 241.596 305.798 237.688 310.633C233.779 315.467 230.693 321.382 228.43 328.377ZM460.005 296.283H439.02L417.264 394.416L397.206 296.283H389.8V340.412L405.229 410.617H429.3L460.005 296.283Z" fill="#D9D9D9"/>
<path fill-rule="evenodd" clip-rule="evenodd" d="M311 0H301V35H290V0H278V42L327.919 39.9934L377 42V0H364V35H353V0H343V35H332V0H322V35H311V0Z" fill="#DBBF8B"/>
<path fill-rule="evenodd" clip-rule="evenodd" d="M567.033 94.3345L559.962 87.2635L535.213 112.012L527.435 104.234L552.184 79.4853L543.698 71L514 100.698L550.717 134.577L584.003 170.702L613.702 141.004L604.509 131.811L579.761 156.56L571.983 148.782L596.731 124.033L589.66 116.962L564.911 141.711L557.133 133.933L581.882 109.184L574.811 102.113L550.062 126.861L542.284 119.083L567.033 94.3345Z" fill="#DBBF8B"/>
<path fill-rule="evenodd" clip-rule="evenodd" d="M61.3345 117.669L54.2635 124.74L79.0122 149.489L71.234 157.267L46.4853 132.518L38 141.004L67.6985 170.702L101.577 133.985L137.702 100.698L108.004 71L98.8112 80.1924L123.56 104.941L115.782 112.719L91.033 87.9705L83.9619 95.0416L108.711 119.79L100.933 127.569L76.1838 102.82L69.1127 109.891L93.8614 134.64L86.0833 142.418L61.3345 117.669Z" fill="#DBBF8B"/>
<rect x="320" y="148" width="15" height="35" rx="5" fill="#DBBF8B"/>
<rect x="321" y="528" width="15" height="35" rx="5" fill="#DBBF8B"/>
<rect x="121" y="363" width="15" height="35" rx="5" transform="rotate(-90 121 363)" fill="#DBBF8B"/>
<rect x="501" y="363" width="15" height="35" rx="5" transform="rotate(-90 501 363)" fill="#DBBF8B"/>
<mask id="mask1_53_208" style="mask-type:alpha" maskUnits="userSpaceOnUse" x="147" y="176" width="360" height="360">
<circle cx="327" cy="356" r="180" fill="#D9D9D9"/>
</mask>
<g mask="url(#mask1_53_208)">
<rect x="185.77" y="229.175" width="13.8462" height="42.4615" rx="5" transform="rotate(-45 185.77 229.175)" fill="#DBBF8B"/>
<rect x="462.256" y="219.385" width="13.8462" height="42.4615" rx="5" transform="rotate(45 462.256 219.385)" fill="#DBBF8B"/>
<rect x="195.559" y="492.739" width="13.8462" height="42.4615" rx="5" transform="rotate(-135 195.559 492.739)" fill="#DBBF8B"/>
<rect x="472.046" y="482.948" width="13.8462" height="42.4615" rx="5" transform="rotate(135 472.046 482.948)" fill="#DBBF8B"/>
<rect x="148.061" y="293.745" width="13.8462" height="42.4615" rx="5" transform="rotate(-67.5425 148.061 293.745)" fill="#DBBF8B"/>
<rect x="399.67" y="178.706" width="13.8462" height="42.4615" rx="5" transform="rotate(22.4575 399.67 178.706)" fill="#DBBF8B"/>
<rect x="258.146" y="533.417" width="13.8462" height="42.4615" rx="5" transform="rotate(-157.542 258.146 533.417)" fill="#DBBF8B"/>
<rect x="509.754" y="418.379" width="13.8462" height="42.4615" rx="5" transform="rotate(112.458 509.754 418.379)" fill="#DBBF8B"/>
<rect x="241.034" y="186.159" width="13.8462" height="42.4615" rx="5" transform="rotate(-23.9037 241.034 186.159)" fill="#DBBF8B"/>
<rect x="502.513" y="276.542" width="13.8462" height="42.4615" rx="5" transform="rotate(66.0963 502.513 276.542)" fill="#DBBF8B"/>
<rect x="155.302" y="435.581" width="13.8462" height="42.4615" rx="5" transform="rotate(-113.904 155.302 435.581)" fill="#DBBF8B"/>
<rect x="416.782" y="525.964" width="13.8462" height="42.4615" rx="5" transform="rotate(156.096 416.782 525.964)" fill="#DBBF8B"/>
</g>
<circle cx="327" cy="680" r="15" fill="#DBBF8B"/>
<circle cx="641" cy="356" r="15" fill="#DBBF8B"/>
<circle cx="15" cy="356" r="15" fill="#DBBF8B"/>
</mask>
<g mask="url(#mask0_53_208)">
<rect width="656" height="695" fill="url(#paint0_linear_53_208)"/>
<rect width="656" height="695" fill="url(#paint1_linear_53_208)" fill-opacity="0.5"/>
<rect width="656" height="695" fill="url(#paint2_linear_53_208)" fill-opacity="0.5"/>
</g>
<defs>
<linearGradient id="paint0_linear_53_208" x1="155.738" y1="53.1518" x2="492.298" y2="622.905" gradientUnits="userSpaceOnUse">
<stop offset="0.365" stop-color="#D0A201"/>
<stop offset="1" stop-color="#412A00"/>
</linearGradient>
<linearGradient id="paint1_linear_53_208" x1="215.637" y1="122.41" x2="424.852" y2="566.316" gradientUnits="userSpaceOnUse">
<stop stop-color="#FFFEFB" stop-opacity="0.1"/>
<stop offset="1" stop-color="#75664A"/>
</linearGradient>
<linearGradient id="paint2_linear_53_208" x1="215.637" y1="122.41" x2="424.852" y2="566.316" gradientUnits="userSpaceOnUse">
<stop stop-color="#FFFEFB" stop-opacity="0.1"/>
<stop offset="1" stop-color="#75664A"/>
</linearGradient>
</defs>
</svg>
